<svg id="visual" viewBox="0 0 960 540" width="960" height="540" xmlns="http://www.w3.org/2000/svg" xmlns:xlink="http://www.w3.org/1999/xlink" version="1.1"><rect x="0" y="0" width="960" height="540" fill="#140021"></rect><path d="M0 203L87 203L87 251L175 251L175 290L262 290L262 249L349 249L349 184L436 184L436 255L524 255L524 212L611 212L611 263L698 263L698 269L785 269L785 241L873 241L873 206L960 206L960 329L960 541L960 541L873 541L873 541L785 541L785 541L698 541L698 541L611 541L611 541L524 541L524 541L436 541L436 541L349 541L349 541L262 541L262 541L175 541L175 541L87 541L87 541L0 541Z" fill="#560090"></path><path d="M0 376L87 376L87 280L175 280L175 273L262 273L262 375L349 375L349 283L436 283L436 396L524 396L524 311L611 311L611 318L698 318L698 246L785 246L785 253L873 253L873 387L960 387L960 325L960 541L960 541L873 541L873 541L785 541L785 541L698 541L698 541L611 541L611 541L524 541L524 541L436 541L436 541L349 541L349 541L262 541L262 541L175 541L175 541L87 541L87 541L0 541Z" fill="#6c00b4"></path><path d="M0 358L87 358L87 352L175 352L175 445L262 445L262 429L349 429L349 334L436 334L436 356L524 356L524 323L611 323L611 406L698 406L698 424L785 424L785 422L873 422L873 346L960 346L960 404L960 541L960 541L873 541L873 541L785 541L785 541L698 541L698 541L611 541L611 541L524 541L524 541L436 541L436 541L349 541L349 541L262 541L262 541L175 541L175 541L87 541L87 541L0 541Z" fill="#8200d9"></path><path d="M0 498L87 498L87 449L175 449L175 413L262 413L262 442L349 442L349 497L436 497L436 422L524 422L524 487L611 487L611 433L698 433L698 469L785 469L785 450L873 450L873 491L960 491L960 438L960 541L960 541L873 541L873 541L785 541L785 541L698 541L698 541L611 541L611 541L524 541L524 541L436 541L436 541L349 541L349 541L262 541L262 541L175 541L175 541L87 541L87 541L0 541Z" fill="#9900ff"></path></svg>